 
http://desibbrg.org/images/66952052392581364616.gif
 
http://desibbrg.org/images/61551014365798370506.jpg
 
http://desibbrg.org/images/96875539711874180906.jpg


Info - 
Sunny Leone as Izna
Randeep Hooda as Kabir
Arunoday Singh as Ayaan
Imran Zahid
Mohan Agashe
Arif Zakaria

Media Info - 
General
Format : MPEG-PS
File size : 685 MiB
Duration : 1h 57mn
Overall bit rate : 815 Kbps
Video #224
ID : 224 (0xE0)
Format : MPEG Video
Format version : Version 2
Format settings, BVOP : Yes
Format settings, Matrix : Custom
Duration : 1h 57mn
Bit rate mode : Constant
Bit rate : 735 Kbps
Nominal bit rate : 1 150 Kbps
Width : 352 pixels
Height : 288 pixels
Display aspect ratio : 1.222
Frame rate : 25.000 fps
Standard : PAL
Color space : YUV
Bit depth : 8 bits
Scan type : Progressive
Compression mode : Lossy
Bits/(Pixel*Frame) : 0.290
Stream size : 617 MiB (90%)

Audio #192
ID : 192 (0xC0)
Format : MPEG Audio
Format version : Version 1
Format profile : Layer 2
Duration : 1h 57mn
Bit rate mode : Constant
Bit rate : 64.0 Kbps
Channel(s) : 2 channels
Sampling rate : 48.0 KHz
Compression mode : Lossy
Stream size : 53.8 MiB (8%)

Ripper : Pherari Mon

Seeding 24x7... Extreme Seeding...


Enjoy!
